<?xml version="1.0" standalone="no"?>
<!DOCTYPE svg PUBLIC "-//W3C//DTD SVG 1.1//EN" "http://www.w3.org/Graphics/SVG/1.1/DTD/svg11.dtd">
<svg width="40px" height="42px" version="1.1" xmlns="http://www.w3.org/2000/svg" xmlns:xlink="http://www.w3.org/1999/xlink" xml:space="preserve" style="fill-rule:evenodd;clip-rule:evenodd;stroke-linejoin:round;stroke-miterlimit:1.41421;">
    <g>
        <g>
            <g>
                <path d="M23.3407,12.5028C22.8494,12.5028 22.4104,12.7014 22.0707,13.0045L22.0655,12.9993L14.5398,19.8978C14.1531,20.2584 13.9336,20.7602 13.9336,21.288C13.9336,21.8158 14.1531,22.3176 14.5398,22.6729L22.0655,29.5715L22.0707,29.5663C22.4104,29.8746 22.8494,30.0627 23.3407,30.0627C24.3755,30.0627 25.2221,29.2213 25.2221,28.1813C25.2221,27.6378 24.9817,27.1465 24.6054,26.8016L24.6054,26.7964L18.6006,21.288L24.6054,15.7744L24.6054,15.7692C24.9817,15.4242 25.2221,14.933 25.2221,14.3842C25.2221,13.3494 24.3755,12.5028 23.3407,12.5028Z" style="fill:black;"/>
            </g>
        </g>
    </g>
</svg>
